<?xml version="1.0" encoding="UTF-8"?>
<svg id="Layer_2" data-name="Layer 2" xmlns="http://www.w3.org/2000/svg" viewBox="0 0 675.04 299.12">
  <defs>
    <style>
      .cls-1 {
        fill: #58341b;
      }

      .cls-2 {
        fill: #b98b5b;
      }
    </style>
  </defs>
  <g id="Layer_1-2" data-name="Layer 1">
    <g>
      <g>
        <path class="cls-2" d="M16.16,261.25h4.48l16.21,37.33h-4.48l-15.95-37.01h3.79l-15.89,37.01H0l16.16-37.33ZM7.36,284.88h22.13v3.79H7.36v-3.79Z"/>
        <path class="cls-2" d="M67.67,261.25h14.88c2.2,0,4.19.47,5.95,1.41,1.76.94,3.14,2.24,4.13,3.89.99,1.65,1.49,3.48,1.49,5.47s-.5,3.81-1.49,5.47c-1,1.65-2.37,2.95-4.13,3.89-1.76.94-3.74,1.41-5.95,1.41h-10.72v15.79h-4.16v-37.33ZM86.34,278.11c1.1-.6,1.96-1.45,2.59-2.53.62-1.08.93-2.27.93-3.55s-.31-2.51-.93-3.57c-.62-1.07-1.48-1.9-2.59-2.51-1.1-.6-2.36-.91-3.79-.91h-10.72v13.97h10.72c1.42,0,2.68-.3,3.79-.91ZM77.54,280.56h5.01l12.43,18.03h-5.01l-12.43-18.03Z"/>
        <path class="cls-2" d="M126.98,270.19c1.71-2.93,4.03-5.24,6.99-6.93,2.95-1.69,6.22-2.53,9.81-2.53,2.67,0,5.13.49,7.39,1.47,2.26.98,4.2,2.28,5.84,3.89,1.64,1.62,2.92,3.42,3.84,5.41l-3.79,1.6c-1.17-2.52-2.94-4.58-5.31-6.16-2.36-1.58-5.02-2.37-7.97-2.37s-5.36.68-7.65,2.03c-2.29,1.35-4.11,3.2-5.44,5.55-1.33,2.35-2,4.94-2,7.79s.67,5.44,2,7.79c1.33,2.35,3.15,4.2,5.44,5.55,2.29,1.35,4.84,2.03,7.65,2.03,2.95,0,5.61-.79,7.97-2.37,2.36-1.58,4.13-3.63,5.31-6.16l3.79,1.6c-.92,1.99-2.2,3.8-3.84,5.41-1.64,1.62-3.58,2.92-5.84,3.89-2.26.98-4.72,1.47-7.39,1.47-3.59,0-6.86-.84-9.81-2.53-2.95-1.69-5.28-4-6.99-6.93-1.71-2.93-2.56-6.18-2.56-9.73s.85-6.8,2.56-9.73Z"/>
        <path class="cls-2" d="M193.27,261.25h4.16v16.8h22.88v-16.8h4.16v37.33h-4.16v-16.8h-22.88v16.8h-4.16v-37.33Z"/>
        <path class="cls-2" d="M257.95,261.25h4.16v37.33h-4.16v-37.33Z"/>
        <path class="cls-2" d="M305.36,265.04h-12.64v-3.79h29.44v3.79h-12.64v33.54h-4.16v-33.54Z"/>
        <path class="cls-2" d="M352.77,261.25h22.99v3.79h-18.83v13.01h18.29v3.73h-18.29v13.01h18.83v3.79h-22.99v-37.33Z"/>
        <path class="cls-2" d="M409.09,270.19c1.71-2.93,4.04-5.24,6.99-6.93,2.95-1.69,6.22-2.53,9.81-2.53,2.67,0,5.13.49,7.39,1.47,2.26.98,4.2,2.28,5.84,3.89,1.63,1.62,2.92,3.42,3.84,5.41l-3.79,1.6c-1.17-2.52-2.94-4.58-5.31-6.16-2.36-1.58-5.02-2.37-7.97-2.37s-5.36.68-7.65,2.03c-2.29,1.35-4.11,3.2-5.44,5.55-1.33,2.35-2,4.94-2,7.79s.67,5.44,2,7.79c1.33,2.35,3.15,4.2,5.44,5.55,2.29,1.35,4.84,2.03,7.65,2.03,2.95,0,5.61-.79,7.97-2.37,2.36-1.58,4.13-3.63,5.31-6.16l3.79,1.6c-.92,1.99-2.21,3.8-3.84,5.41-1.64,1.62-3.58,2.92-5.84,3.89-2.26.98-4.72,1.47-7.39,1.47-3.59,0-6.86-.84-9.81-2.53-2.95-1.69-5.28-4-6.99-6.93-1.71-2.93-2.56-6.18-2.56-9.73s.85-6.8,2.56-9.73Z"/>
        <path class="cls-2" d="M482.58,265.04h-12.64v-3.79h29.44v3.79h-12.64v33.54h-4.16v-33.54Z"/>
        <path class="cls-2" d="M533.61,261.25v23.52c0,2.03.47,3.84,1.41,5.44.94,1.6,2.25,2.84,3.92,3.73s3.57,1.33,5.71,1.33,4.09-.44,5.76-1.33,2.98-2.13,3.92-3.73c.94-1.6,1.41-3.41,1.41-5.44v-23.52h4.16v23.52c0,2.77-.65,5.25-1.95,7.41-1.3,2.17-3.1,3.87-5.41,5.09-2.31,1.23-4.94,1.84-7.89,1.84s-5.53-.61-7.84-1.84c-2.31-1.23-4.12-2.93-5.41-5.12s-1.95-4.65-1.95-7.39v-23.52h4.16Z"/>
        <path class="cls-2" d="M592.86,261.25h14.88c2.2,0,4.19.47,5.95,1.41,1.76.94,3.14,2.24,4.13,3.89s1.49,3.48,1.49,5.47-.5,3.81-1.49,5.47-2.37,2.95-4.13,3.89c-1.76.94-3.74,1.41-5.95,1.41h-10.72v15.79h-4.16v-37.33ZM611.53,278.11c1.1-.6,1.96-1.45,2.59-2.53.62-1.08.93-2.27.93-3.55s-.31-2.51-.93-3.57c-.62-1.07-1.49-1.9-2.59-2.51-1.1-.6-2.36-.91-3.79-.91h-10.72v13.97h10.72c1.42,0,2.68-.3,3.79-.91ZM602.73,280.56h5.01l12.43,18.03h-5.01l-12.43-18.03Z"/>
        <path class="cls-2" d="M652.06,261.25h22.99v3.79h-18.83v13.01h18.29v3.73h-18.29v13.01h18.83v3.79h-22.99v-37.33Z"/>
      </g>
      <g>
        <g>
          <path class="cls-2" d="M127.11,76.05c-1.11-11.08-10.94-11.21-17.45-3.98-7.49,8.33-14.03,19.51-21.48,28.42-3.81,4.55-7.98,8.84-11.96,13.23,24.11,7.44,53.57-10.98,50.89-37.66ZM119.89,71.05c4.31.15,4.86,6.52.97,7.24-6.22,1.15-6.21-7.43-.97-7.24Z"/>
          <path class="cls-2" d="M176.26,132.67c1.76-.1,7.9-1.34,9.24-2.24.81-.54-.37-1.63-.8-2.2-2.15-2.84-5.1-5.67-7.38-8.58-3.76-4.79-8.36-12.72-12.26-16.69-2.07-2.1-4.65-3.22-7.64-2.61-7.25,1.47-4.93,13.27-2.95,18.19,3.65,9.07,11.9,14.7,21.79,14.12ZM157.91,103.32c2.44-.37,4.72,2.87,2.64,5.17-3.97,4.39-7.92-4.37-2.64-5.17Z"/>
          <path class="cls-2" d="M125.24,147.49c7.14-1.79,12.75-4.14,16.34-5.83-6.23.71-13.4.11-19.7-.5-15.7-1.54-30.56-5.18-45.29-10.6-2.02-.74-9.4-4.31-10.65-4.37-.72-.04-6.67,3.92-6.73,4.32-.77,4.99,10.77,11.25,12.99,12.43,21.08,11.23,44.52,6.69,53.04,4.56Z"/>
          <path class="cls-2" d="M200.7,146.64c2.54-2.17,9.18-8.77,10.35-11.6.33-.8.51-1.48.39-2.35-6.08,1.13-12.06,2.83-17.94,4.76-3.76,6.98-7.5,14-12.5,20.18,2.09,1.53,17.31-8.95,19.7-10.99Z"/>
          <path class="cls-2" d="M107.75,157.51c.47.2,1.15.49,1.98.82,2.54,1.01,10.32,3.93,25.14,5.26,0,0,10.08,2.51,27.19-.69,1.34-.25,4.9-1.02,5.93-1.56,1.02-.54,6.43-6.18,7.53-7.44,1.21-1.38,10.51-13.75,9.47-14.73-4.01.71-8.16,1.2-12.23,1.49-3.3.23-7.18-.42-10.35.12-2.91.49-10.1,5.4-13.5,6.95-13.13,6.01-25.83,8.6-34.52,9.39-2.79.25-5.1.34-6.64.38Z"/>
          <path class="cls-2" d="M175.44,168.28c-1.84.53-4.08.4-5.87,1.12-2.49.99-6.56,4.12-9.41,5.56-4.77,2.4-9.24,4.09-14.34,5.62-.71.21-.88-.31-.74,1,18.24,3.34,37.65-2.46,52.55-13.06,9.42-6.7,15.31-16.98,17.3-28.35l-6,8.22c-9.21,9.76-20.61,16.2-33.5,19.89Z"/>
          <path class="cls-2" d="M145.71,173.93c3.35-1.16,6.03-2.41,7.84-3.32-19.32,2.24-38.68-1.46-56.37-9.25-3.18-1.4-6.52-3.74-9.5-4.98-4.18-1.73-9.03-2.6-13.46-4.5-3.24-1.4-6.26-3.32-9.5-4.72,1.99,2.75,3.71,7.5,5.77,9.94,9.98,11.83,23.33,15.37,34.04,17.86,7.3,1.69,23.26,5.19,41.16-1.02Z"/>
          <path class="cls-2" d="M135.99,187.92c-4.15-.76-9.34-2.83-13.16-3.31-2.09-.26-4.4.21-6.44-.05-10.81-1.37-20.69-4.29-30.69-8.47,5,5.87,12.6,10.41,19.62,13.56,22.28,9.98,46.31,10.35,68.54,0,3.11-1.45,6.64-3.23,9.14-5.57-15.1,5.96-31.1,6.76-47.01,3.84Z"/>
          <path class="cls-1" d="M223.24,121.75c-7.58.13-16.91,4.19-24.58,4.88-5.96.54-8.95-3.52-12.65-7.68-5.16-5.8-14.66-22.51-20.12-25.29-5.38-2.74-12.45-1.73-16.84,2.33-.93.86-1.89,3.03-2.98,3.5-1.2.52-7.78.46-8.01,1.56-.27,1.27,3.75,2.95,6.74,7.21,3.23,4.6,1.94,7.81,4.06,14.25,1.03,3.14,3.01,7.47,7.2,12.16-25.98.59-52.43-1.87-76.84-10.98,0-.86,2.19-.55,2.76-.52,20.11,1.13,44.22-9.29,51.14-29.65,1.58-4.65,1.8-13.87,4.95-17,1.07-1.07,8.19-5.01,7-6.71-.37-.53-10.13-2.09-11.64-2.09-5.43-7-11.44-11-20.56-7.92-7.99,2.7-14.88,15.89-20.21,22.7-5.53,7.07-12.77,15.66-20.29,23.59-6.41,6.03-13.86,10.89-20.07,17.04,1.29-21.42,3.49-44.43,4.98-65.23.33-4.63-.04-1.17-.77-3.58s-2.55-1.04-4.04-1.51c-.49-.16-.91.29-1,.36-1.93,1.38-2.66,3.54-2.99,5.59-1.8,11.23-3.33,22.21-4.97,33.39-2.95-29.78-4.09-59.67-5.83-89.54-.7-1.64-2.56-2.77-4.18-2.59-1.95.22-2.3,1.19-3.39,2.47-.02,18.59-.07,37.15-.13,55.74-4.17-10.39-8.33-20.62-12.92-30.88-2.36-5.27-4.66-10.52-7.33-15.83-.89-1.77-2.8-3.39-5.07-3.47-1.38-.05-3.14.38-3.89,1.76-1.58,2.93-.46,6.14.73,8.92,6.95,16.26,13.83,32.54,19.82,49.01,1.33,3.66,2.43,6.75,3.54,10.28.99,3.12,1.6,5.67,2.5,8.91.66,2.39,1.63,6.46,2.23,8.89,4.9,19.7,7.05,40.7,5.12,59.91-1.87,18.68-.59,32.13-3.39,49.94-.02.14-.16,1.75.21,2.21.36.46,1.8,1.67,2.2,1.77,5.99,1.46,10.92.86,16.9.41.67-.05,1.49-.94,2.01-1.4.53-.46.77-2.32.71-2.78-.52-3.63-.81-13.17-.83-15.57-.05-7.03.02-20.86.2-24.61.4-8.38,1.15-14.86,2.41-21.11.75,1.87,1.47,4.19,2.19,5.71,19.95,41.99,63.68,65.11,109.6,50.36,30.53-9.8,59.22-43.22,59.01-76.23-.01-1.89-.81-2.74-2.7-2.71ZM193.5,137.45c5.87-1.93,11.86-3.64,17.94-4.76.12.87-.06,1.56-.39,2.35-1.17,2.83-7.81,9.43-10.35,11.6-2.38,2.04-17.61,12.52-19.7,10.99,5-6.18,8.74-13.2,12.5-20.18ZM154.47,118.55c-1.98-4.92-4.3-16.71,2.95-18.19,2.99-.61,5.58.51,7.64,2.61,3.89,3.96,8.49,11.89,12.26,16.69,2.29,2.91,5.24,5.74,7.38,8.58.43.57,1.61,1.65.8,2.2-1.33.89-7.47,2.13-9.24,2.24-9.89.57-18.15-5.05-21.79-14.12ZM162.41,140.79c3.18-.54,7.06.11,10.35-.12,4.07-.28,8.21-.78,12.23-1.49,1.04.98-8.25,13.35-9.47,14.73-1.1,1.26-6.51,6.9-7.53,7.44-1.03.54-4.59,1.31-5.93,1.56-17.12,3.2-27.19.69-27.19.69-14.83-1.32-22.6-4.25-25.14-5.26-.83-.33-1.52-.62-1.98-.82,1.53-.03,3.84-.12,6.64-.38,8.69-.79,21.39-3.38,34.52-9.39,3.4-1.56,10.59-6.46,13.5-6.95ZM88.18,100.48c7.45-8.9,13.99-20.08,21.48-28.42,6.5-7.23,16.33-7.1,17.45,3.98,2.68,26.69-26.78,45.1-50.89,37.66,3.99-4.39,8.15-8.68,11.96-13.23ZM59.21,130.5c.06-.4,6.02-4.35,6.73-4.32,1.24.07,8.63,3.63,10.65,4.37,14.73,5.42,29.59,9.07,45.29,10.6,6.31.62,13.48,1.21,19.7.5-3.59,1.69-9.2,4.04-16.34,5.83-8.52,2.14-31.95,6.67-53.04-4.56-2.22-1.18-13.76-7.44-12.99-12.43ZM70.51,157.1c-2.06-2.44-3.79-7.19-5.77-9.94,3.24,1.4,6.25,3.32,9.5,4.72,4.42,1.9,9.28,2.77,13.46,4.5,2.97,1.23,6.32,3.58,9.5,4.98,17.69,7.79,37.05,11.49,56.37,9.25-1.81.91-4.49,2.16-7.84,3.32-17.91,6.21-33.87,2.72-41.16,1.02-10.7-2.49-24.05-6.03-34.04-17.86ZM173.86,189.66c-22.23,10.35-46.26,9.98-68.54,0-7.02-3.15-14.62-7.69-19.62-13.56,10,4.18,19.89,7.1,30.69,8.47,2.04.26,4.35-.21,6.44.05,3.82.48,9.01,2.54,13.16,3.31,15.91,2.92,31.91,2.12,47.01-3.84-2.5,2.34-6.03,4.12-9.14,5.57ZM197.63,168.52c-14.9,10.6-34.31,16.4-52.55,13.06-.15-1.32.02-.79.74-1,5.11-1.54,9.57-3.22,14.34-5.62,2.85-1.44,6.92-4.56,9.41-5.56,1.79-.71,4.03-.59,5.87-1.12,12.89-3.69,24.29-10.14,33.5-19.89l6-8.22c-1.99,11.37-7.88,21.64-17.3,28.35Z"/>
          <path class="cls-1" d="M120.85,78.29c3.89-.72,3.34-7.09-.97-7.24-5.24-.19-5.25,8.39.97,7.24Z"/>
          <path class="cls-1" d="M160.55,108.49c2.08-2.3-.2-5.54-2.64-5.17-5.28.8-1.33,9.56,2.64,5.17Z"/>
        </g>
        <g>
          <path class="cls-1" d="M479.95,197.12c-1.86-.58-.1-8.85.3-10.7l-4.48,4.14c-19.78,16.36-51.73,6.22-57.56-19.1-7.6-33.01,19.77-62.13,52.33-46.98l9.71,7.83-1.19-32.7h12.78c.06,0,.89.83.89.89v95.72c0,.06-.83.89-.89.89-2.45,0-10.28.5-11.89,0ZM453.97,133.07c-30.22,2.08-31.46,49.86-1.89,52.67,37.01,3.52,36.21-55.04,1.89-52.67Z"/>
          <path class="cls-1" d="M360.01,120.58c47.45-5.4,60.57,62.03,18.29,75.96-55.69,18.34-72.44-69.8-18.29-75.96ZM364.16,133.15c-33.58,1.39-31.4,56.3,4.6,52.66,30.7-3.1,28.04-54.02-4.6-52.66Z"/>
          <path class="cls-1" d="M269.65,120.59c31.28-3.19,53.34,28.69,38.99,56.83-15.4,30.21-60.92,27.21-71.25-5.3-7.48-23.53,7.17-48.97,32.26-51.53ZM273.24,133.05c-32.8.92-31.71,56,4.55,52.76,30.19-2.7,28.34-53.69-4.55-52.76Z"/>
          <path class="cls-1" d="M526.03,122.2v48.46c0,3.7,3.49,9.67,6.58,11.85,12.19,8.61,33.26.57,33.26-15.42v-44.89h13.38c.06,0,.89.83.89.89v73.13c0,.06-.83.89-.89.89h-12.49c-1.53,0-.32-3.12-.3-3.87.07-2.27-.03-4.56,0-6.83-12.74,14.89-36.9,17.82-49.24.79-2.56-3.54-5.46-11.67-5.46-15.95v-49.05h14.27Z"/>
        </g>
        <g>
          <path class="cls-1" d="M596.09,138.8c2.23-1.58,5.07-2.56,8.52-2.94l6.25-.63c1.18-.13,2.06-.43,2.65-.92.59-.48.88-1.23.88-2.24,0-1.56-.6-2.8-1.8-3.73-1.2-.93-2.77-1.39-4.7-1.39s-3.64.5-4.99,1.48c-1.35.99-2.23,2.47-2.65,4.45l-6.57-1.58c.38-1.98,1.22-3.71,2.53-5.21,1.3-1.49,2.96-2.65,4.96-3.47,2-.82,4.24-1.23,6.73-1.23,3.92,0,7.08,1.02,9.5,3.06,2.42,2.04,3.63,4.94,3.63,8.68v21.15h-6.63v-10.74l.57.06c-.84,3.83-2.32,6.67-4.42,8.53-2.11,1.85-4.8,2.78-8.08,2.78-1.77,0-3.41-.37-4.93-1.1s-2.69-1.8-3.54-3.19c-.84-1.39-1.26-2.97-1.26-4.74,0-3.16,1.12-5.53,3.35-7.1ZM600.82,148.46c.97.74,2.23,1.1,3.79,1.1,1.81,0,3.46-.43,4.96-1.29,1.49-.86,2.67-2,3.54-3.41.86-1.41,1.29-2.89,1.29-4.45v-2.84l.38.13c-.17.76-.57,1.34-1.2,1.74-.63.4-1.58.66-2.84.79l-6.13.76c-1.6.21-2.87.68-3.82,1.42-.95.74-1.42,1.74-1.42,3s.48,2.33,1.45,3.06Z"/>
          <path class="cls-1" d="M628.17,107.57h6.63v46.73h-6.63v-46.73Z"/>
        </g>
        <g>
          <path class="cls-1" d="M595.98,183.6c2.16-1.53,4.91-2.47,8.25-2.84l6.05-.61c1.14-.12,2-.42,2.57-.89.57-.47.86-1.19.86-2.17,0-1.51-.58-2.71-1.74-3.61-1.16-.9-2.68-1.34-4.55-1.34s-3.52.48-4.83,1.44c-1.3.96-2.16,2.39-2.57,4.31l-6.35-1.53c.37-1.91,1.18-3.59,2.44-5.04,1.26-1.45,2.86-2.57,4.8-3.36,1.93-.79,4.1-1.19,6.51-1.19,3.79,0,6.85.99,9.2,2.96,2.34,1.98,3.51,4.78,3.51,8.4v20.47h-6.42v-10.39l.55.06c-.82,3.71-2.24,6.46-4.28,8.25-2.04,1.79-4.64,2.69-7.82,2.69-1.71,0-3.3-.36-4.77-1.07s-2.61-1.74-3.42-3.09c-.82-1.34-1.22-2.87-1.22-4.58,0-3.06,1.08-5.35,3.24-6.87ZM600.56,192.95c.94.71,2.16,1.07,3.67,1.07,1.75,0,3.35-.42,4.8-1.25,1.45-.83,2.59-1.93,3.42-3.3.83-1.36,1.25-2.8,1.25-4.31v-2.75l.37.12c-.16.73-.55,1.29-1.16,1.68-.61.39-1.53.64-2.75.76l-5.93.73c-1.55.2-2.78.66-3.7,1.37-.92.71-1.37,1.68-1.37,2.9s.47,2.25,1.41,2.96Z"/>
          <path class="cls-1" d="M627.02,167.38h6.42v9.78h-.55c.61-3.14,1.86-5.65,3.76-7.55,1.89-1.89,4.16-2.84,6.81-2.84,2.81,0,5.17,1,7.09,2.99,1.91,2,3.08,4.58,3.48,7.76l-.79.12c.49-3.26,1.71-5.89,3.67-7.88,1.96-2,4.34-2.99,7.15-2.99,2.12,0,4.01.57,5.68,1.71,1.67,1.14,2.97,2.71,3.91,4.7.94,2,1.41,4.26,1.41,6.78v18.64h-6.48v-17.66c0-1.59-.3-3.01-.89-4.28-.59-1.26-1.42-2.25-2.47-2.96-1.06-.71-2.22-1.07-3.48-1.07-1.43,0-2.72.36-3.88,1.07-1.16.71-2.06,1.7-2.69,2.96-.63,1.26-.95,2.69-.95,4.28v17.66h-6.42v-17.66c0-1.59-.3-3.01-.89-4.28-.59-1.26-1.43-2.25-2.5-2.96-1.08-.71-2.23-1.07-3.45-1.07-1.43,0-2.72.36-3.88,1.07-1.16.71-2.06,1.7-2.69,2.96-.63,1.26-.95,2.69-.95,4.28v17.66h-6.42v-31.22Z"/>
        </g>
      </g>
    </g>
  </g>
</svg>